<svg xmlns="http://www.w3.org/2000/svg" width="300" height="280" viewBox="0 0 300 280"><text x="10" y="20" font-family="'Segoe UI', Ubuntu, sans-serif" font-size="16" font-weight="600" fill="#8a6d1b">Linguagens mais usadas</text><g transform="translate(10, 0)"><text x="0" y="34" font-family="'Segoe UI', Ubuntu, sans-serif" font-size="12" fill="#4b5563">Python</text><text x="280" y="34" font-family="'Segoe UI', Ubuntu, sans-serif" font-size="12" fill="#4b5563" text-anchor="end">40.5%</text><rect x="0" y="40" width="280" height="6" rx="3" fill="#4b5563" opacity="0.15"/><rect x="0" y="40" width="113.4" height="6" rx="3" fill="#3572A5"/><text x="0" y="64" font-family="'Segoe UI', Ubuntu, sans-serif" font-size="12" fill="#4b5563">C</text><text x="280" y="64" font-family="'Segoe UI', Ubuntu, sans-serif" font-size="12" fill="#4b5563" text-anchor="end">27.6%</text><rect x="0" y="70" width="280" height="6" rx="3" fill="#4b5563" opacity="0.15"/><rect x="0" y="70" width="77.2" height="6" rx="3" fill="#555555"/><text x="0" y="94" font-family="'Segoe UI', Ubuntu, sans-serif" font-size="12" fill="#4b5563">JavaScript</text><text x="280" y="94" font-family="'Segoe UI', Ubuntu, sans-serif" font-size="12" fill="#4b5563" text-anchor="end">15.8%</text><rect x="0" y="100" width="280" height="6" rx="3" fill="#4b5563" opacity="0.15"/><rect x="0" y="100" width="44.1" height="6" rx="3" fill="#f1e05a"/><text x="0" y="124" font-family="'Segoe UI', Ubuntu, sans-serif" font-size="12" fill="#4b5563">CSS</text><text x="280" y="124" font-family="'Segoe UI', Ubuntu, sans-serif" font-size="12" fill="#4b5563" text-anchor="end">15.0%</text><rect x="0" y="130" width="280" height="6" rx="3" fill="#4b5563" opacity="0.15"/><rect x="0" y="130" width="41.9" height="6" rx="3" fill="#563d7c"/><text x="0" y="154" font-family="'Segoe UI', Ubuntu, sans-serif" font-size="12" fill="#4b5563">Jupyter Notebook</text><text x="280" y="154" font-family="'Segoe UI', Ubuntu, sans-serif" font-size="12" fill="#4b5563" text-anchor="end">0.8%</text><rect x="0" y="160" width="280" height="6" rx="3" fill="#4b5563" opacity="0.15"/><rect x="0" y="160" width="2.3" height="6" rx="3" fill="#DA5B0B"/><text x="0" y="184" font-family="'Segoe UI', Ubuntu, sans-serif" font-size="12" fill="#4b5563">HTML</text><text x="280" y="184" font-family="'Segoe UI', Ubuntu, sans-serif" font-size="12" fill="#4b5563" text-anchor="end">0.3%</text><rect x="0" y="190" width="280" height="6" rx="3" fill="#4b5563" opacity="0.15"/><rect x="0" y="190" width="2.0" height="6" rx="3" fill="#e34c26"/><text x="0" y="214" font-family="'Segoe UI', Ubuntu, sans-serif" font-size="12" fill="#4b5563">SQL</text><text x="280" y="214" font-family="'Segoe UI', Ubuntu, sans-serif" font-size="12" fill="#4b5563" text-anchor="end">0.0%</text><rect x="0" y="220" width="280" height="6" rx="3" fill="#4b5563" opacity="0.15"/><rect x="0" y="220" width="2.0" height="6" rx="3" fill="#e38c00"/><text x="0" y="244" font-family="'Segoe UI', Ubuntu, sans-serif" font-size="12" fill="#4b5563">Kotlin</text><text x="280" y="244" font-family="'Segoe UI', Ubuntu, sans-serif" font-size="12" fill="#4b5563" text-anchor="end">0.0%</text><rect x="0" y="250" width="280" height="6" rx="3" fill="#4b5563" opacity="0.15"/><rect x="0" y="250" width="2.0" height="6" rx="3" fill="#A97BFF"/></g></svg>
