<svg xmlns="http://www.w3.org/2000/svg" width="300" height="280" viewBox="0 0 300 280"><text x="10" y="20" font-family="'Segoe UI', Ubuntu, sans-serif" font-size="16" font-weight="600" fill="#d4af37">Linguagens mais usadas</text><g transform="translate(10, 0)"><text x="0" y="34" font-family="'Segoe UI', Ubuntu, sans-serif" font-size="12" fill="#9ba3af">Python</text><text x="280" y="34" font-family="'Segoe UI', Ubuntu, sans-serif" font-size="12" fill="#9ba3af" text-anchor="end">35.7%</text><rect x="0" y="40" width="280" height="6" rx="3" fill="#9ba3af" opacity="0.15"/><rect x="0" y="40" width="100.0" height="6" rx="3" fill="#3572A5"/><text x="0" y="64" font-family="'Segoe UI', Ubuntu, sans-serif" font-size="12" fill="#9ba3af">C</text><text x="280" y="64" font-family="'Segoe UI', Ubuntu, sans-serif" font-size="12" fill="#9ba3af" text-anchor="end">28.5%</text><rect x="0" y="70" width="280" height="6" rx="3" fill="#9ba3af" opacity="0.15"/><rect x="0" y="70" width="79.7" height="6" rx="3" fill="#555555"/><text x="0" y="94" font-family="'Segoe UI', Ubuntu, sans-serif" font-size="12" fill="#9ba3af">JavaScript</text><text x="280" y="94" font-family="'Segoe UI', Ubuntu, sans-serif" font-size="12" fill="#9ba3af" text-anchor="end">17.7%</text><rect x="0" y="100" width="280" height="6" rx="3" fill="#9ba3af" opacity="0.15"/><rect x="0" y="100" width="49.5" height="6" rx="3" fill="#f1e05a"/><text x="0" y="124" font-family="'Segoe UI', Ubuntu, sans-serif" font-size="12" fill="#9ba3af">CSS</text><text x="280" y="124" font-family="'Segoe UI', Ubuntu, sans-serif" font-size="12" fill="#9ba3af" text-anchor="end">16.8%</text><rect x="0" y="130" width="280" height="6" rx="3" fill="#9ba3af" opacity="0.15"/><rect x="0" y="130" width="47.0" height="6" rx="3" fill="#563d7c"/><text x="0" y="154" font-family="'Segoe UI', Ubuntu, sans-serif" font-size="12" fill="#9ba3af">Jupyter Notebook</text><text x="280" y="154" font-family="'Segoe UI', Ubuntu, sans-serif" font-size="12" fill="#9ba3af" text-anchor="end">0.9%</text><rect x="0" y="160" width="280" height="6" rx="3" fill="#9ba3af" opacity="0.15"/><rect x="0" y="160" width="2.6" height="6" rx="3" fill="#DA5B0B"/><text x="0" y="184" font-family="'Segoe UI', Ubuntu, sans-serif" font-size="12" fill="#9ba3af">HTML</text><text x="280" y="184" font-family="'Segoe UI', Ubuntu, sans-serif" font-size="12" fill="#9ba3af" text-anchor="end">0.3%</text><rect x="0" y="190" width="280" height="6" rx="3" fill="#9ba3af" opacity="0.15"/><rect x="0" y="190" width="2.0" height="6" rx="3" fill="#e34c26"/><text x="0" y="214" font-family="'Segoe UI', Ubuntu, sans-serif" font-size="12" fill="#9ba3af">SQL</text><text x="280" y="214" font-family="'Segoe UI', Ubuntu, sans-serif" font-size="12" fill="#9ba3af" text-anchor="end">0.1%</text><rect x="0" y="220" width="280" height="6" rx="3" fill="#9ba3af" opacity="0.15"/><rect x="0" y="220" width="2.0" height="6" rx="3" fill="#e38c00"/><text x="0" y="244" font-family="'Segoe UI', Ubuntu, sans-serif" font-size="12" fill="#9ba3af">Kotlin</text><text x="280" y="244" font-family="'Segoe UI', Ubuntu, sans-serif" font-size="12" fill="#9ba3af" text-anchor="end">0.0%</text><rect x="0" y="250" width="280" height="6" rx="3" fill="#9ba3af" opacity="0.15"/><rect x="0" y="250" width="2.0" height="6" rx="3" fill="#A97BFF"/></g></svg>
